<?xml version="1.0" encoding="UTF-8" standalone="no"?>
<svg
   xmlns:dc="http://purl.org/dc/elements/1.1/"
   xmlns:cc="http://creativecommons.org/ns#"
   xmlns:rdf="http://www.w3.org/1999/02/22-rdf-syntax-ns#"
   xmlns:svg="http://www.w3.org/2000/svg"
   xmlns="http://www.w3.org/2000/svg"
   xmlns:sodipodi="http://sodipodi.sourceforge.net/DTD/sodipodi-0.dtd"
   xmlns:inkscape="http://www.inkscape.org/namespaces/inkscape"
   version="1.0"
   width="128px"
   height="128px"
   viewBox="0 0 150.000000 150.000000"
   preserveAspectRatio="xMidYMid meet"
   id="svg4136"
   inkscape:version="0.91 r13725"
   sodipodi:docname="finger.svg">
  <metadata
     id="metadata4172">
    <rdf:RDF>
      <cc:Work
         rdf:about="">
        <dc:format>image/svg+xml</dc:format>
        <dc:type
           rdf:resource="http://purl.org/dc/dcmitype/StillImage" />
      </cc:Work>
    </rdf:RDF>
  </metadata>
  <defs
     id="defs4170" />
  <sodipodi:namedview
     pagecolor="#ffffff"
     bordercolor="#00CDFF"
     borderopacity="1"
     objecttolerance="10"
     gridtolerance="10"
     guidetolerance="10"
     inkscape:pageopacity="0"
     inkscape:pageshadow="2"
     inkscape:window-width="1366"
     inkscape:window-height="705"
     id="namedview4168"
     showgrid="false"
     inkscape:zoom="2.0213826"
     inkscape:cx="78.587639"
     inkscape:cy="63.923152"
     inkscape:window-x="-8"
     inkscape:window-y="-8"
     inkscape:window-maximized="1"
     inkscape:current-layer="svg4136" />
  <g
     transform="translate(0.000000,150.000000) scale(0.100000,-0.100000)"
     fill="#00CDFF"
     stroke="none"
     id="g4138">
    <path
       d="M778 1475 c-3 -4 -37 -6 -75 -6 -93 1 -161 -20 -214 -68 -50 -44 -48 -66 3 -28 61 47 158 83 158 58 0 -5 -29 -28 -65 -51 -36 -23 -65 -49 -65 -56 0 -22 12 -17 73 26 102 73 153 94 234 94 62 0 71 2 59 14 -15 15 -97 28 -108 17z"
       id="path4140" />
    <path
       d="M782 1390 c-61 -13 -148 -55 -196 -94 -23 -18 -75 -49 -116 -68 -42 -19 -91 -49 -111 -66 -58 -51 -144 -231 -121 -254 9 -9 22 11 52 76 67 144 91 167 220 211 49 17 86 38 117 66 24 22 69 52 100 66 48 22 65 25 137 21 110 -6 150 -28 263 -146 51 -53 95 -93 99 -90 12 13 -52 115 -111 174 -44 45 -75 67 -119 83 -68 25 -153 34 -214 21z m-187 -130 c-10 -11 -23 -20 -28 -20 -13 0 24 39 37 39 5 1 1 -8 -9 -19z"
       id="path4142" />
    <path
       d="M425 1296 c-32 -14 -102 -82 -94 -91 3 -2 21 8 40 24 19 16 54 35 77 42 23 7 41 17 39 23 -5 16 -28 17 -62 2z"
       id="path4144" />
    <path
       d="M890 1302 c0 -15 25 -39 92 -85 125 -87 204 -201 244 -347 22 -82 23 -292 1 -400 -17 -83 -7 -116 17 -59 46 110 47 372 3 511 -51 160 -150 285 -284 356 -64 34 -73 37 -73 24z"
       id="path4146" />
    <path
       d="M704 1262 c-32 -20 -244 -259 -301 -339 -17 -25 -52 -93 -76 -151 -25 -59 -59 -133 -76 -166 -31 -59 -39 -96 -21 -96 14 0 66 84 86 139 33 93 92 207 132 256 64 77 179 171 257 209 130 64 208 58 297 -23 106 -97 131 -192 109 -414 -19 -181 -28 -226 -60 -292 -30 -60 -95 -134 -107 -122 -4 3 14 53 39 110 44 101 67 187 67 254 0 18 -4 33 -10 33 -5 0 -10 -1 -10 -2 -21 -146 -56 -246 -114 -326 -73 -98 -198 -179 -312 -201 -67 -13 -144 -46 -144 -61 0 -14 4 -13 133 14 64 13 140 37 173 54 32 16 94 44 136 62 43 17 89 41 103 52 55 43 128 236 145 383 6 50 13 110 16 135 12 92 -44 248 -120 337 -75 87 -169 104 -313 56 -88 -29 -111 -26 -72 7 43 37 97 60 141 60 91 0 78 40 -15 47 -39 3 -60 -1 -83 -15z m11 -32 c-3 -5 -11 -10 -16 -10 -6 0 -7 5 -4 10 3 6 11 10 16 10 6 0 7 -4 4 -10z m-80 -112 c0 -8 -35 -43 -78 -77 -42 -35 -84 -72 -92 -84 -8 -12 -15 -18 -15 -13 0 10 24 41 101 126 60 67 84 81 84 48z m305 -884 c0 -2 -19 -9 -42 -16 -24 -6 -63 -23 -86 -36 -64 -35 -60 -22 8 26 33 24 67 54 77 68 l16 25 14 -31 c7 -18 13 -34 13 -36z"
       id="path4148" />
    <path
       d="M489 1130 c-88 -46 -187 -189 -244 -351 -51 -145 -21 -120 62 51 76 156 85 169 157 238 94 89 99 101 25 62z"
       id="path4150" />
    <path
       d="M743 1081 c-59 -20 -96 -46 -205 -144 -92 -82 -107 -117 -89 -206 24 -121 3 -191 -94 -300 -36 -41 -65 -78 -65 -83 0 -25 42 0 97 57 80 83 121 166 129 262 4 40 14 83 24 97 22 34 152 152 188 170 74 38 152 24 195 -36 45 -61 29 -321 -27 -443 -36 -79 -111 -154 -206 -205 -123 -66 -153 -114 -44 -70 238 97 357 303 340 588 -3 56 -12 117 -20 135 -17 42 -57 74 -108 88 -76 20 -143 -9 -263 -117 -82 -72 -105 -86 -105 -62 0 21 163 166 221 197 100 54 185 50 248 -11 49 -48 61 -80 74 -191 12 -101 30 -134 43 -82 9 37 -3 142 -23 201 -11 32 -34 67 -68 101 -75 74 -141 89 -242 54z m-194 -173 c-2 -2 -20 -16 -39 -33 l-35 -30 29 33 c17 17 34 32 40 32 5 0 7 -1 5 -2z m-34 -124 c17 6 17 5 0 -20 -9 -15 -21 -59 -25 -98 -4 -39 -8 -57 -9 -40 0 17 -4 67 -7 110 -6 71 -5 77 8 60 10 -13 21 -17 33 -12z"
       id="path4152" />
    <path
       d="M800 901 c0 -9 81 -53 87 -47 10 10 -13 36 -39 45 -38 13 -48 14 -48 2z"
       id="path4154" />
    <path
       d="M740 893 c-8 -3 -50 -39 -92 -81 -64 -63 -79 -83 -89 -124 -6 -27 -9 -51 -7 -54 3 -2 23 25 44 62 35 59 133 164 154 164 11 0 21 28 12 33 -4 3 -14 2 -22 0z"
       id="path4156" />
    <path
       d="M783 828 c-57 -15 -184 -175 -253 -321 -40 -84 -74 -123 -186 -213 -47 -38 -38 -56 14 -29 75 40 184 163 281 318 109 174 132 203 166 210 47 8 55 -13 53 -131 -3 -89 -7 -114 -26 -152 -33 -63 -96 -125 -172 -170 -91 -54 -254 -190 -242 -202 15 -15 80 18 157 81 38 31 95 72 126 89 67 38 134 107 159 165 11 23 23 72 29 107 12 79 9 216 -5 230 -18 18 -68 27 -101 18z m-114 -155 c-59 -100 -103 -165 -107 -155 -5 16 109 192 124 192 3 0 -4 -17 -17 -37z m111 -277 c0 -2 -8 -10 -17 -17 -16 -13 -17 -12 -4 4 13 16 21 21 21 13z m-215 -156 c-3 -5 -20 -19 -38 -30 l-32 -22 35 31 c35 32 46 38 35 21z"
       id="path4158" />
    <path
       d="M784 742 c-7 -4 -44 -69 -84 -145 -103 -198 -157 -262 -297 -355 -29 -19 -51 -37 -49 -40 3 -2 21 -1 41 2 24 5 70 34 139 90 57 46 121 95 142 109 92 57 129 133 136 275 4 70 -1 82 -28 64z m1 -64 c-2 -24 -25 -39 -25 -16 0 11 18 38 25 38 1 0 1 -10 0 -22z m-33 -145 c-22 -42 -59 -80 -68 -70 -4 4 13 46 37 94 43 87 43 88 47 51 2 -22 -4 -51 -16 -75z m-73 -82 c10 -6 5 -14 -20 -33 -55 -41 -60 -41 -32 2 28 43 31 44 52 31z"
       id="path4160" />
    <path
       d="M1197 710 c-9 -39 -14 -150 -7 -150 13 0 30 127 21 151 l-9 24 -5 -25z"
       id="path4162" />
    <path
       d="M379 689 c-6 -12 -22 -53 -35 -91 -13 -39 -38 -87 -59 -110 -35 -42 -45 -68 -24 -68 33 0 137 154 148 218 12 65 -6 95 -30 51z"
       id="path4164" />
    <path
       d="M1145 423 c-56 -159 -127 -238 -242 -269 -43 -12 -95 -36 -142 -68 -60 -40 -84 -50 -128 -54 -69 -6 -69 -22 0 -22 46 0 62 6 108 38 l54 38 0 -28 c0 -15 -2 -28 -5 -29 -28 -4 -43 -9 -48 -14 -15 -16 155 8 195 26 41 20 70 45 61 54 -2 2 -35 -7 -74 -20 -38 -14 -82 -25 -98 -25 -28 0 -28 1 -12 19 9 10 45 29 79 41 142 51 192 91 244 193 41 81 67 197 44 197 -4 0 -21 -35 -36 -77z"
       id="path4166" />
  </g>
  <path
     style="fill:#00CDFF;fill-opacity:0.80784314;stroke:#00CDFF;stroke-width:1;stroke-opacity:1"
     d="m 70.597472,32.314448 c -0.300138,-0.658732 2.473612,-3.613815 4.144427,-4.415367 0.561241,-0.269248 0.955032,-0.304596 0.985711,-0.08848 0.05607,0.394945 -0.736905,1.51409 -1.872542,2.642778 -1.503627,1.494426 -3.027883,2.365236 -3.257596,1.86107 z"
     id="path4174"
     inkscape:connector-curvature="0"
     transform="scale(0.8,0.8)" />
  <path
     style="fill:#00CDFF;fill-opacity:0.80784314;stroke:#00CDFF;stroke-width:1;stroke-opacity:1"
     d="m 71.323364,31.750947 c 0,-0.193427 1.438414,-1.749591 2.2262,-2.40844 0.491137,-0.410753 1.238232,-0.91805 1.284245,-0.872037 0.04766,0.04766 -0.539625,0.769698 -1.118933,1.375665 -0.609855,0.637919 -1.288139,1.221891 -1.865881,1.60644 -0.480095,0.319554 -0.525631,0.345402 -0.525631,0.298372 z"
     id="path4176"
     inkscape:connector-curvature="0"
     transform="scale(0.8,0.8)" />
  <path
     style="fill:#00CDFF;fill-opacity:0.80784314;stroke:#00CDFF;stroke-width:1;stroke-opacity:1"
     d="m 87.110505,34.929919 c -0.762316,-0.219852 -0.32884,-1.484115 0.707444,-2.063305 0.678667,-0.379314 1.345605,-0.431376 1.608646,-0.125573 0.167284,0.194479 0.171522,0.28815 0.03251,0.718574 -0.14452,0.447479 -0.669614,0.964959 -1.273137,1.254677 -0.50278,0.241357 -0.787977,0.298538 -1.075464,0.215627 z"
     id="path4178"
     inkscape:connector-curvature="0"
     transform="scale(0.8,0.8)" />
  <path
     style="fill:#00CDFF;fill-opacity:0.80784314;stroke:#00CDFF;stroke-width:1;stroke-opacity:1"
     d="m 87.250539,34.302847 c 0.186532,-0.60469 0.837925,-1.133613 1.486065,-1.206668 0.324634,-0.03659 0.340042,0.01413 0.11892,0.391445 -0.246511,0.420639 -1.082173,0.954361 -1.494269,0.954361 -0.130819,0 -0.147263,-0.02067 -0.110716,-0.139138 z"
     id="path4180"
     inkscape:connector-curvature="0"
     transform="scale(0.8,0.8)" />
  <path
     style="fill:#00CDFF;fill-opacity:0.80784314;stroke:#00CDFF;stroke-width:1;stroke-opacity:1"
     d="m 56.296521,69.463622 c 0,-1.261859 3.508466,-5.637974 12.396117,-15.461699 4.650849,-5.140689 6.999155,-7.334835 8.690935,-8.120397 0.574776,-0.266891 1.063957,-0.302954 1.340087,-0.09879 0.405562,0.29986 0.58745,0.814374 0.600782,1.699453 0.0065,0.433694 -0.009,0.494134 -0.209381,0.816532 -0.945308,1.520671 -4.30491,4.802421 -8.039052,7.852763 -5.234078,4.27561 -10.608798,9.020639 -12.165731,10.740422 -0.321752,0.355405 -0.782281,0.925869 -1.023398,1.267696 -0.51986,0.736995 -1.270948,1.518169 -1.4597,1.518169 -0.107833,0 -0.130659,-0.03741 -0.130659,-0.214147 z"
     id="path4182"
     inkscape:connector-curvature="0"
     transform="scale(0.8,0.8)" />
  <path
     style="fill:#00CDFF;fill-opacity:1;stroke:#00CDFF;stroke-width:1;stroke-opacity:1"
     d="m 59.018096,65.993905 c 7.53e-4,-0.06494 1.490537,-1.895824 2.728772,-3.353553 2.024332,-2.383174 7.098119,-8.078949 9.265247,-10.401059 3.308487,-3.545094 5.381276,-5.383089 6.667134,-5.91192 0.789868,-0.324846 1.033733,-0.117062 1.108657,0.944628 0.03511,0.497578 0.03184,0.513299 -0.174102,0.835479 -0.987239,1.54447 -4.158367,4.588456 -8.589056,8.244688 -4.286551,3.537289 -8.376187,7.109757 -10.249791,8.953621 -0.416639,0.410027 -0.757227,0.719678 -0.756861,0.688116 z"
     id="path4184"
     inkscape:connector-curvature="0"
     transform="scale(0.8,0.8)" />
  <path
     style="fill:#00CDFF;fill-opacity:1;stroke:#00CDFF;stroke-width:1;stroke-opacity:1"
     d="m 60.13053,81.096112 c 0,-0.01882 0.691231,-0.819271 1.536069,-1.778786 2.823962,-3.207281 5.529971,-5.545552 6.417955,-5.545776 0.265592,-6.7e-5 0.579739,0.06735 0.579739,0.124413 0,0.02594 -0.424369,0.394339 -0.943042,0.818665 -1.136151,0.929484 -2.466981,2.059545 -5.352561,4.545072 -1.194439,1.028844 -2.186659,1.870626 -2.204933,1.870626 -0.01827,0 -0.03323,-0.0154 -0.03323,-0.03421 z"
     id="path4186"
     inkscape:connector-curvature="0"
     transform="scale(0.8,0.8)" />
  <path
     style="fill:#00CDFF;fill-opacity:1;stroke:#00CDFF;stroke-width:1;stroke-opacity:1"
     d=""
     id="path4188"
     inkscape:connector-curvature="0"
     transform="scale(0.8,0.8)" />
  <path
     style="fill:#00CDFF;fill-opacity:1;stroke:#00CDFF;stroke-width:0.80000001;stroke-opacity:1"
     id="path4192"
     d="m 48.314167,64.772591 c -0.0045,0.118147 -0.004,0.236466 -0.0042,0.35469 -0.0024,0.118741 0.01292,0.238269 -0.0178,0.354028 -0.292564,0.530538 -0.538573,0.512493 -0.862889,0.347163 -0.04802,-0.04214 -0.110332,-0.05973 -0.153927,-0.106826 -0.02174,-0.0235 -0.03961,-0.05031 -0.05997,-0.07502 -0.231281,-0.262512 0.354966,-0.704672 0.614882,-0.508468 0.05432,0.05892 0.128263,0.07685 0.204305,0.0897 0.01501,0.0017 0.03002,0.0034 0.04504,0.005 0,0 -0.596796,0.420391 -0.596796,0.420391 l 0,0 c -0.01601,-0.0029 -0.03201,-0.0058 -0.04801,-0.0087 -0.07496,-0.01902 -0.144014,-0.05069 -0.210854,-0.08638 -0.0369,0.252292 -0.0081,0.02683 0.607091,-0.362013 0.0038,-0.0025 -0.01004,-0.0014 -0.01364,0.0014 -0.01373,0.01074 -0.0031,0.0305 0.0024,0.04066 0.0062,0.01167 0.01501,0.02185 0.02251,0.03277 0.05806,0.07162 0.115015,0.111653 0.196536,0.155737 0.03358,0.01586 0.07437,0.04032 0.113646,0.03666 0.0098,-8.8e-4 0.03636,-0.01485 0.02794,-0.0097 -0.503368,0.307602 -0.794619,0.461961 -0.550635,0.331996 0.0084,-0.01241 0.01983,-0.02322 0.02508,-0.03722 0.03153,-0.08419 -0.0058,-0.203779 0.009,-0.292001 -1.28e-4,-0.116821 4.3e-4,-0.233743 -0.0042,-0.350484 0,0 0.654419,-0.333443 0.654419,-0.333443 z"
     inkscape:connector-curvature="0" />
  <path
     style="fill:#00CDFF;fill-opacity:1;stroke:#00CDFF;stroke-width:1;stroke-opacity:1"
     d="m 60.22594,109.89991 c -0.02268,-0.0591 -0.0672,-0.76158 -0.09894,-1.56108 -0.08677,-2.18535 -0.619111,-10.019475 -1.014828,-14.934508 -0.386057,-4.795048 -0.359483,-6.338483 0.10913,-6.338483 0.162066,0 0.566706,0.397125 1.157234,1.135743 0.639293,0.799612 1.464348,1.365855 2.229121,1.52987 0.527357,0.113098 1.106113,0.03308 2.034539,-0.281289 0.868207,-0.293978 1.218421,-0.346466 1.277879,-0.19152 0.05883,0.153299 -0.243499,0.718126 -1.017567,1.901094 -0.408723,0.624629 -0.852842,1.385191 -0.986932,1.690137 -0.842015,1.914907 -1.755797,5.309101 -2.296886,8.531666 -0.182458,1.08666 -0.261468,1.6941 -0.591195,4.54515 -0.259164,2.24092 -0.561535,3.9578 -0.713584,4.05177 -0.02571,0.0159 -0.06529,-0.0195 -0.08797,-0.0785 z"
     id="path4194"
     inkscape:connector-curvature="0"
     transform="scale(0.8,0.8)" />
  <path
     style="fill:#00CDFF;fill-opacity:1;stroke:#00CDFF;stroke-width:1;stroke-opacity:1"
     d="m 95.564199,106.06725 c -0.541235,-0.27417 -0.684519,-1.26996 -0.321589,-2.23497 0.607109,-1.61426 2.221709,-3.78028 2.817902,-3.78028 0.08926,0 0.100735,0.11611 0.09932,1.00488 -0.0029,1.82762 -0.124493,2.54718 -0.591159,3.49839 -0.542873,1.10655 -1.45164,1.79203 -2.004477,1.51198 z"
     id="path4196"
     inkscape:connector-curvature="0"
     transform="scale(0.8,0.8)" />
  <path
     style="fill:#00CDFF;fill-opacity:1;stroke:#00CDFF;stroke-width:1;stroke-opacity:1"
     d="m 70.31333,122.81695 c -0.06884,-0.0689 -0.04498,-0.46783 0.04561,-0.76268 0.377142,-1.22746 1.668051,-3.74417 3.520841,-6.86412 4.260265,-7.17393 9.744782,-14.94175 11.415772,-16.16837 0.534043,-0.392024 0.61973,-0.255449 0.33561,0.534915 -0.364525,1.014035 -0.691718,1.600205 -3.496962,6.264875 -6.076128,10.1036 -9.912612,15.78172 -11.392128,16.86072 -0.242199,0.17663 -0.352219,0.21118 -0.428747,0.13466 z"
     id="path4198"
     inkscape:connector-curvature="0"
     transform="scale(0.8,0.8)" />
  <path
     style="fill:#00CDFF;fill-opacity:1;stroke:#00CDFF;stroke-width:1;stroke-opacity:1"
     d="m 93.795607,141.17293 c 0,-0.0772 0.590069,-0.89844 1.071899,-1.49193 0.541824,-0.66739 1.561519,-1.7055 1.887032,-1.92111 0.431452,-0.28578 0.689562,-0.22715 0.689562,0.15665 0,0.34047 -0.758506,1.11617 -2.285291,2.3371 -0.892923,0.71404 -1.363202,1.03118 -1.363202,0.91929 z"
     id="path4204"
     inkscape:connector-curvature="0"
     transform="scale(0.8,0.8)" />
  <path
     style="fill:#00CDFF;fill-opacity:1;stroke:#00CDFF;stroke-width:1;stroke-opacity:1"
     d="m 76.409611,139.01411 c -0.17663,-0.0601 -0.07353,-0.45798 0.312848,-1.20729 0.441362,-0.85595 0.96926,-1.7129 2.237467,-3.63214 1.08838,-1.64709 1.716423,-2.49499 2.28317,-3.08242 0.733591,-0.76038 1.216841,-0.9602 1.899302,-0.78536 0.668303,0.17121 1.98336,0.94168 2.182399,1.27862 0.457244,0.77405 -0.563779,1.88245 -4.176803,4.53425 -1.529239,1.12239 -3.367453,2.36822 -3.863416,2.61839 -0.40627,0.20493 -0.757834,0.31581 -0.874967,0.27595 z"
     id="path4206"
     inkscape:connector-curvature="0"
     transform="scale(0.8,0.8)" />
  <path
     style="fill:#00CDFF;fill-opacity:1;stroke:#00CDFF;stroke-width:1;stroke-opacity:1"
     d="m 62.7604,163.25887 c 0.06708,-0.0639 0.873302,-0.77961 1.791609,-1.59054 0.918307,-0.81094 1.975752,-1.75171 2.349877,-2.09061 2.069863,-1.87499 3.744953,-3.19052 4.062552,-3.19052 0.239445,0 0.07487,0.45476 -0.414021,1.14402 -0.459237,0.64746 -2.077626,1.97148 -3.803128,3.11139 -0.493165,0.32579 -1.597317,1.07386 -2.453672,1.66237 -1.463708,1.0059 -1.821855,1.22872 -1.533217,0.95389 z"
     id="path4208"
     inkscape:connector-curvature="0"
     transform="scale(0.8,0.8)" />
  <path
     style="fill:#00CDFF;fill-opacity:1;stroke:#00CDFF;stroke-width:0.80000001;stroke-opacity:1"
     id="path4210"
     d="m 49.451474,130.93566 c 0.111825,0.003 0.223734,0.002 0.335596,0.002 0.105369,-2.8e-4 0.21074,-4.5e-4 0.316109,-5.4e-4 0.391635,0.01 0.385197,-0.13462 -0.419086,0.43086 -0.06798,-0.0238 -0.125339,-0.0674 -0.188589,-0.10113 -0.08673,-0.0539 -0.119962,-0.14163 -0.139393,-0.23705 -0.0021,-0.0162 -0.0042,-0.0323 -0.0062,-0.0485 0,0 0.646779,-0.33874 0.646779,-0.33874 l 0,0 c 0.0014,0.0146 0.0028,0.0292 0.0042,0.0438 0.01241,0.077 0.03267,0.14303 0.106984,0.18081 0.05242,0.0294 0.109684,0.0722 0.172447,0.0676 -0.626299,0.47073 -0.358087,0.43226 -0.766995,0.43087 -0.104869,-8e-5 -0.209739,-2.5e-4 -0.314608,-5.4e-4 -0.113799,-2.4e-4 -0.22764,-8e-4 -0.341405,0.002 0,0 0.594186,-0.4317 0.594186,-0.4317 z"
     inkscape:connector-curvature="0" />
  <path
     style="fill:#00CDFF;fill-opacity:1;stroke:#00CDFF;stroke-width:1;stroke-opacity:1"
     d="m 96.646243,166.27842 c 0.244041,-0.29405 2.506495,-2.07619 5.027677,-3.96031 6.48605,-4.84714 9.92822,-8.06011 11.64527,-10.86989 l 0.76468,-1.2513 0.93293,2.09888 c 1.41946,3.19347 2.34952,5.79921 2.14345,6.00527 -0.10179,0.1018 -2.46488,0.9489 -5.25131,1.88245 -2.78642,0.93355 -7.28148,2.8071 -9.98901,4.16345 -5.038245,2.52393 -6.082943,2.90654 -5.273687,1.93145 z"
     id="path4212"
     inkscape:connector-curvature="0"
     transform="scale(0.8,0.8)" />
  <path
     style="fill:#00CDFF;fill-opacity:1;stroke:#00CDFF;stroke-width:0.80000001;stroke-opacity:1"
     id="path4214"
     d="m 77.183323,132.59844 c 0.298406,1.5e-4 0.5697,0.0715 0.777392,0.29034 0.15205,0.20951 0.07822,0.38892 -0.05646,0.57647 -0.584123,0.62329 -1.361653,1.14711 -2.208591,1.29948 0,0 1.638755,-1.26387 1.638755,-1.26387 l 0,0 c 0.702431,-0.29929 0.04711,-0.025 -1.577175,0.93264 -0.05589,0.033 0.09673,-0.0279 0.168465,-0.0962 0.02379,-0.0226 0.0415,-0.0509 0.06224,-0.0763 0.197765,-0.1399 -0.04729,0.0443 0.122873,-0.11898 0.0559,-0.0537 0.14081,-0.0826 0.08664,-0.17019 -0.189532,-0.16529 -0.455377,-0.15968 -0.694765,-0.15235 0,0 1.680614,-1.22103 1.680614,-1.22103 z"
     inkscape:connector-curvature="0" />
  <path
     style="fill:none;fill-rule:evenodd;stroke:#00CDFF;stroke-width:0.08;stroke-linecap:butt;stroke-linejoin:miter;stroke-miterlimit:4;stroke-dasharray:none;stroke-opacity:1"
     d="m 64.213475,148.86217 12.862484,0.0495"
     id="path4218"
     inkscape:connector-curvature="0"
     sodipodi:nodetypes="cc" />
  <path
     style="fill:#00CDFF;fill-opacity:1;stroke:#00CDFF;stroke-width:0.1;stroke-miterlimit:4;stroke-dasharray:none;stroke-opacity:1"
     d="m 84.128401,185.99725 -0.340114,-0.0257 0.620628,-0.14179 c 2.056329,-0.46981 3.925863,-1.3977 7.047391,-3.49777 0.544182,-0.36611 2.533847,-1.75227 4.421479,-3.08034 l 3.432056,-2.41469 0.01866,2.05361 c 0.02431,2.67456 -0.09351,4.06545 -0.398541,4.70511 -0.122888,0.2577 -0.09269,0.24602 -0.980579,0.3793 -3.073376,0.46133 -5.47087,1.32981 -5.320868,1.92747 l 0.036,0.14344 -4.098003,-0.0114 c -2.253901,-0.006 -4.251054,-0.023 -4.438116,-0.0372 z"
     id="path4220"
     inkscape:connector-curvature="0"
     transform="scale(0.8,0.8)" />
  <path
     style="fill:#00CDFF;fill-opacity:1;stroke:#00CDFF;stroke-width:0.1;stroke-miterlimit:4;stroke-dasharray:none;stroke-opacity:1"
     d=""
     id="path4222"
     inkscape:connector-curvature="0"
     transform="scale(0.8,0.8)" />
  <path
     style="fill:#00CDFF;fill-opacity:1;stroke:#00CDFF;stroke-width:0.1;stroke-miterlimit:4;stroke-dasharray:none;stroke-opacity:1"
     d="m 76.800495,186.16345 c -3.380265,-0.18068 -4.938676,-0.81211 -3.630704,-1.47107 0.99576,-0.50166 2.643693,-0.82773 5.825984,-1.15275 3.946391,-0.40307 6.03973,-0.97547 9.015033,-2.46507 1.875893,-0.93917 3.383874,-1.84656 7.001232,-4.21282 3.580471,-2.34212 5.21367,-3.29388 8.16273,-4.75691 3.56924,-1.7707 6.38984,-2.8718 10.04882,-3.92281 4.16453,-1.19623 7.52577,-2.6931 10.65174,-4.74355 l 0.8812,-0.57802 0,2.64561 0,2.64562 -1.77786,0.87268 c -3.17316,1.55758 -6.44083,2.91587 -10.89335,4.52812 -3.16332,1.14544 -5.63418,2.25339 -7.80521,3.49992 -1.64484,0.94442 -2.44275,1.59328 -3.3409,2.71681 -0.71676,0.89665 -0.72829,1.20366 -0.0525,1.3981 0.19253,0.0554 0.73559,0.0804 1.76241,0.0813 1.26313,10e-4 1.60384,-0.0195 2.28804,-0.13788 2.47045,-0.42742 5.93165,-1.35457 8.96663,-2.4019 3.17292,-1.09493 6.91435,-2.25248 8.84705,-2.73716 0.90728,-0.22752 1.86087,-0.3969 1.94429,-0.34535 0.0338,0.0209 0.0614,0.2813 0.0614,0.57873 0,0.49283 -0.0162,0.56636 -0.18274,0.82895 -0.2715,0.42811 -1.06151,1.22964 -1.7961,1.82228 -1.63065,1.31556 -4.7709,3.17782 -6.33848,3.75892 -3.37388,1.25068 -11.74258,2.81456 -18.520743,3.46102 -1.446344,0.13794 -3.001636,0.16892 -5.318142,0.10593 -1.787714,-0.0486 -1.880352,-0.0557 -0.838465,-0.0645 1.026461,-0.009 1.156503,-0.0207 1.051652,-0.0974 -0.0658,-0.0481 -0.133735,-0.0661 -0.150957,-0.04 -0.01722,0.0261 -2.382734,0.0668 -5.256695,0.0904 -2.873961,0.0236 -5.684537,0.0682 -6.245725,0.0992 -1.198817,0.0661 -3.054538,0.0635 -4.35964,-0.006 z m 7.142389,-0.17943 c -0.120405,-0.0386 -0.128383,-0.0509 -0.03607,-0.0557 0.06519,-0.003 0.105535,-0.0192 0.08966,-0.035 -0.01587,-0.0159 -0.236176,0.009 -0.489558,0.0551 l -0.460692,0.084 0.52563,5.6e-4 c 0.350009,3.7e-4 0.473977,-0.016 0.371033,-0.049 l 0,-3e-5 z m 0.354285,-0.16104 c -0.02055,-0.0206 -0.07388,-0.0227 -0.118524,-0.005 -0.04933,0.0197 -0.03468,0.0344 0.03736,0.0374 0.06519,0.003 0.101712,-0.0119 0.08116,-0.0325 l 0,0 z m 8.558399,-0.25637 c 0.07692,-0.0981 0.07473,-0.10027 -0.02335,-0.0233 -0.103009,0.0808 -0.135766,0.13157 -0.08487,0.13157 0.01284,0 0.06154,-0.0487 0.108218,-0.10822 z m 4.304085,-1.41328 c -0.02055,-0.0206 -0.07389,-0.0227 -0.118525,-0.005 -0.04933,0.0197 -0.03468,0.0344 0.03736,0.0374 0.06519,0.003 0.101712,-0.0119 0.08116,-0.0325 l 0,0 z m 1.113099,-0.18551 c -0.02055,-0.0205 -0.07388,-0.0228 -0.118524,-0.005 -0.04933,0.0197 -0.03468,0.0344 0.03736,0.0374 0.06519,0.003 0.101712,-0.0119 0.08116,-0.0325 l 0,0 z m 0.546019,-0.12183 c 0.06602,-0.0535 0.08307,-0.0784 0.03789,-0.0552 -0.04518,0.0232 -0.156489,0.0646 -0.247355,0.092 -0.132573,0.04 -0.14006,0.0509 -0.03789,0.0552 0.07003,0.003 0.181335,-0.0385 0.247355,-0.092 z m 0.200853,-0.30624 c -0.01904,-0.019 -0.05362,0.0153 -0.07684,0.0763 -0.03356,0.0881 -0.02646,0.0952 0.03462,0.0346 0.04226,-0.0419 0.06126,-0.0918 0.04222,-0.11088 z m 0.176575,-0.78681 c -0.01715,-0.0425 -0.03119,-0.008 -0.03119,0.0773 0,0.085 0.01404,0.11981 0.03119,0.0773 0.01716,-0.0425 0.01716,-0.11209 0,-0.1546 z m 0.06374,-0.40078 c -0.01568,-0.0602 -0.02954,-0.0259 -0.0308,0.0761 -0.0013,0.10203 0.01157,0.15126 0.02851,0.10939 0.01694,-0.0419 0.01797,-0.12535 0.0023,-0.18552 l -3e-6,0 z m 0.06328,-0.74324 c -0.01417,-0.0935 -0.02576,-0.017 -0.02576,0.17006 0,0.18706 0.01159,0.26359 0.02576,0.17005 0.01417,-0.0935 0.01417,-0.24658 0,-0.34011 z m 0.07939,-2.58542 c 0,-1.27744 -0.02087,-2.30972 -0.04638,-2.29398 -0.04953,0.0306 -0.0327,4.61659 0.01694,4.61659 0.01619,0 0.02944,-1.04518 0.02944,-2.32261 z m -5.619449,1.65784 c 0.07692,-0.0981 0.07473,-0.10027 -0.02335,-0.0233 -0.103008,0.0808 -0.135766,0.13157 -0.08487,0.13157 0.01284,0 0.06154,-0.0487 0.108218,-0.10822 z m 0.618389,-0.43287 c 0.07692,-0.0981 0.07473,-0.10027 -0.02335,-0.0233 -0.103008,0.0808 -0.135766,0.13156 -0.08487,0.13156 0.01284,0 0.06154,-0.0487 0.108218,-0.10821 z m 0.618389,-0.43288 c 0.07692,-0.0981 0.07473,-0.10026 -0.02335,-0.0233 -0.05952,0.0467 -0.108218,0.0954 -0.108218,0.10821 0,0.0509 0.05078,0.0181 0.131566,-0.0849 z m 0.672339,-0.48767 c 0,-0.017 -0.08348,0.0285 -0.185517,0.10118 -0.102034,0.0727 -0.185516,0.14601 -0.185516,0.16302 0,0.017 0.08348,-0.0285 0.185516,-0.10118 0.102034,-0.0726 0.185517,-0.14601 0.185517,-0.16302 z m 0.618389,-0.43287 c 0,-0.017 -0.08348,0.0285 -0.185517,0.10118 -0.102034,0.0727 -0.185517,0.14601 -0.185517,0.16302 0,0.017 0.08348,-0.0285 0.185517,-0.10118 0.102034,-0.0727 0.185517,-0.14602 0.185517,-0.16302 z m 0.618388,-0.43039 c 0,-0.017 -0.125224,0.0552 -0.278275,0.16054 -0.153051,0.1053 -0.278275,0.20537 -0.278275,0.22237 0,0.017 0.125224,-0.0552 0.278275,-0.16054 0.153051,-0.1053 0.278275,-0.20537 0.278275,-0.22237 z m 0.432872,-0.31168 c 0,-0.017 -0.08348,0.0285 -0.185516,0.10118 -0.102034,0.0727 -0.185517,0.14602 -0.185517,0.16302 0,0.017 0.08348,-0.0285 0.185517,-0.10118 0.102034,-0.0727 0.185516,-0.14601 0.185516,-0.16302 z m 0.618389,-0.43287 c 0,-0.017 -0.08348,0.0285 -0.185517,0.10118 -0.102034,0.0727 -0.185516,0.14601 -0.185516,0.16302 0,0.017 0.08348,-0.0285 0.185516,-0.10118 0.102034,-0.0727 0.185517,-0.14601 0.185517,-0.16302 z m 0.618388,-0.43039 c 0,-0.017 -0.125223,0.0552 -0.278274,0.16054 -0.153052,0.1053 -0.278275,0.20537 -0.278275,0.22237 0,0.017 0.125223,-0.0552 0.278275,-0.16053 0.153051,-0.10531 0.278274,-0.20538 0.278274,-0.22238 z m 0.432873,-0.31168 c 0,-0.017 -0.08348,0.0285 -0.185517,0.10118 -0.102034,0.0727 -0.185517,0.14602 -0.185517,0.16302 0,0.017 0.08348,-0.0285 0.185517,-0.10118 0.102034,-0.0727 0.185517,-0.14601 0.185517,-0.16302 z"
     id="path4226"
     inkscape:connector-curvature="0"
     transform="scale(0.8,0.8)" />
</svg>
